<svg width="35" height="26" viewBox="0 0 35 26" fill="none" xmlns="http://www.w3.org/2000/svg">
<path d="M26.573 6.73524C26.573 8.5951 25.0653 10.1028 23.2055 10.1028C21.3456 10.1028 19.8379 8.5951 19.8379 6.73524C19.8379 4.87539 21.3456 3.36768 23.2055 3.36768C25.0653 3.36768 26.573 4.87539 26.573 6.73524Z" fill="#E0E0E0" stroke="#E0E0E0" stroke-width="2.02054"/>
<path d="M16.2862 15.8383L17.036 15.3384C18.863 14.1204 21.0097 13.4705 23.2055 13.4705C25.4014 13.4705 27.5481 14.1204 29.3751 15.3384L30.1249 15.8383C31.0617 16.4629 31.6245 17.5143 31.6245 18.6403V20.3178C31.6245 21.1858 30.9209 21.8894 30.0529 21.8894H23.2055H16.3582C15.4902 21.8894 14.7866 21.1858 14.7866 20.3178V18.6403C14.7866 17.5143 15.3493 16.4629 16.2862 15.8383Z" fill="#E0E0E0" stroke="#E0E0E0" stroke-width="2.02054" stroke-linecap="round" stroke-linejoin="round"/>
<path d="M15.1541 6.73524C15.1541 8.5951 13.6464 10.1028 11.7865 10.1028C9.92666 10.1028 8.41895 8.5951 8.41895 6.73524C8.41895 4.87539 9.92666 3.36768 11.7865 3.36768C13.6464 3.36768 15.1541 4.87539 15.1541 6.73524Z" fill="#E0E0E0" stroke="#E0E0E0" stroke-width="2.02054"/>
<path d="M5.08574 15.8728L5.4831 15.6495C7.40798 14.568 9.57872 14 11.7866 14C11.7866 14 11.1414 16.2102 11.0001 18C10.9472 18.6708 10.9411 19.5105 10.9508 20.2378C10.9628 21.1367 10.2465 21.8894 9.34752 21.8894H4.93921C4.07127 21.8894 3.36768 21.1858 3.36768 20.3178V18.8087C3.36768 17.5915 4.02454 16.469 5.08574 15.8728Z" fill="#E0E0E0" stroke="#E0E0E0" stroke-width="2.02054" stroke-linecap="round" stroke-linejoin="round"/>
</svg>
