<svg width="24" height="24" viewBox="0 0 24 24" fill="none" xmlns="http://www.w3.org/2000/svg">
<g clip-path="url(#clip0_12138_6302)">
<path d="M4.39148 15.2446C1.44328 13.7705 1.44329 9.56247 4.39148 8.08838L13.035 3.76709C13.4782 3.54552 13.9996 3.86745 13.9999 4.36279L13.9999 18.9702C13.9996 19.4656 13.4782 19.7875 13.035 19.5659L4.39148 15.2446Z" stroke="#898989" stroke-width="2"/>
<path d="M18.3334 16.6665C19.1142 16.4535 19.8362 15.9811 20.4115 15.2927C21.2152 14.331 21.6667 13.0266 21.6667 11.6665C21.6667 10.3064 21.2152 9.00204 20.4115 8.04031C19.8362 7.35193 19.1142 6.87946 18.3334 6.6665" stroke="#898989" stroke-width="1.66667" stroke-linecap="round"/>
<path d="M17.5003 11.1603C17.5003 10.9796 17.6523 10.8274 17.8192 10.8965C17.9203 10.9384 18.0122 10.9998 18.0896 11.0772C18.167 11.1545 18.2283 11.2464 18.2702 11.3475C18.3121 11.4486 18.3337 11.557 18.3337 11.6664C18.3337 11.7759 18.3121 11.8842 18.2702 11.9853C18.2283 12.0864 18.167 12.1783 18.0896 12.2557C18.0122 12.3331 17.9203 12.3944 17.8192 12.4363C17.6523 12.5055 17.5003 12.3532 17.5003 12.1725L17.5003 11.6664L17.5003 11.1603Z" fill="#898989" stroke="#898989" stroke-width="0.833333"/>
</g>
<defs>
<clipPath id="clip0_12138_6302">
<rect width="23.3333" height="23.3333" fill="white"/>
</clipPath>
</defs>
</svg>
